<mxfile host="app.diagrams.net" modified="2023-09-11T09:04:59.548Z" agent="Mozilla/5.0 (Windows NT 10.0; Win64; x64) AppleWebKit/537.36 (KHTML, like Gecko) Chrome/114.0.0.0 Safari/537.36 OPR/100.0.0.0" etag="IlG7YHP4H-QyPPZWA3Lj" version="21.7.4" type="github">
  <diagram name="Сторінка-1" id="Tq_ss9qbDP-b7sr8NMDR">
    <mxGraphModel dx="679" dy="700" grid="1" gridSize="10" guides="1" tooltips="1" connect="1" arrows="1" fold="1" page="1" pageScale="1" pageWidth="827" pageHeight="1169" math="0" shadow="0">
      <root>
        <mxCell id="0" />
        <mxCell id="1" parent="0" />
        <mxCell id="Sio0LcyGTWQJamyzir7T-1" value="cinema" style="swimlane;whiteSpace=wrap;html=1;" vertex="1" parent="1">
          <mxGeometry x="199" y="85" width="430" height="500" as="geometry" />
        </mxCell>
        <mxCell id="Sio0LcyGTWQJamyzir7T-6" value="check available films" style="ellipse;whiteSpace=wrap;html=1;" vertex="1" parent="Sio0LcyGTWQJamyzir7T-1">
          <mxGeometry x="15" y="25" width="105" height="70" as="geometry" />
        </mxCell>
        <mxCell id="Sio0LcyGTWQJamyzir7T-12" value="" style="endArrow=none;dashed=1;html=1;dashPattern=1 3;strokeWidth=2;rounded=0;exitX=1;exitY=0.5;exitDx=0;exitDy=0;entryX=0;entryY=0.5;entryDx=0;entryDy=0;" edge="1" parent="Sio0LcyGTWQJamyzir7T-1" source="Sio0LcyGTWQJamyzir7T-6" target="Sio0LcyGTWQJamyzir7T-37">
          <mxGeometry width="50" height="50" relative="1" as="geometry">
            <mxPoint x="130" y="130" as="sourcePoint" />
            <mxPoint x="130" y="65" as="targetPoint" />
          </mxGeometry>
        </mxCell>
        <mxCell id="Sio0LcyGTWQJamyzir7T-14" value="take your seat" style="ellipse;whiteSpace=wrap;html=1;" vertex="1" parent="Sio0LcyGTWQJamyzir7T-1">
          <mxGeometry x="21" y="225" width="120" height="80" as="geometry" />
        </mxCell>
        <mxCell id="Sio0LcyGTWQJamyzir7T-21" value="watch film" style="ellipse;whiteSpace=wrap;html=1;" vertex="1" parent="Sio0LcyGTWQJamyzir7T-1">
          <mxGeometry x="15" y="335" width="120" height="80" as="geometry" />
        </mxCell>
        <mxCell id="Sio0LcyGTWQJamyzir7T-26" value="card" style="ellipse;whiteSpace=wrap;html=1;" vertex="1" parent="Sio0LcyGTWQJamyzir7T-1">
          <mxGeometry x="311" y="415" width="90" height="50" as="geometry" />
        </mxCell>
        <mxCell id="Sio0LcyGTWQJamyzir7T-25" value="cash" style="ellipse;whiteSpace=wrap;html=1;" vertex="1" parent="Sio0LcyGTWQJamyzir7T-1">
          <mxGeometry x="340" y="325" width="90" height="50" as="geometry" />
        </mxCell>
        <mxCell id="Sio0LcyGTWQJamyzir7T-35" value="checkout" style="ellipse;whiteSpace=wrap;html=1;" vertex="1" parent="Sio0LcyGTWQJamyzir7T-1">
          <mxGeometry x="281" y="215" width="100" height="60" as="geometry" />
        </mxCell>
        <mxCell id="Sio0LcyGTWQJamyzir7T-37" value="choose place" style="ellipse;whiteSpace=wrap;html=1;" vertex="1" parent="Sio0LcyGTWQJamyzir7T-1">
          <mxGeometry x="210" y="25" width="120" height="80" as="geometry" />
        </mxCell>
        <mxCell id="Sio0LcyGTWQJamyzir7T-40" value="" style="endArrow=classic;html=1;rounded=0;entryX=0.64;entryY=-0.033;entryDx=0;entryDy=0;entryPerimeter=0;exitX=0.933;exitY=0.775;exitDx=0;exitDy=0;exitPerimeter=0;" edge="1" parent="Sio0LcyGTWQJamyzir7T-1" source="Sio0LcyGTWQJamyzir7T-37" target="Sio0LcyGTWQJamyzir7T-35">
          <mxGeometry width="50" height="50" relative="1" as="geometry">
            <mxPoint x="240" y="180" as="sourcePoint" />
            <mxPoint x="290" y="130" as="targetPoint" />
          </mxGeometry>
        </mxCell>
        <mxCell id="Sio0LcyGTWQJamyzir7T-42" value="" style="endArrow=none;html=1;strokeWidth=2;rounded=0;entryX=0.4;entryY=1.017;entryDx=0;entryDy=0;entryPerimeter=0;exitX=0.333;exitY=-0.02;exitDx=0;exitDy=0;exitPerimeter=0;" edge="1" parent="Sio0LcyGTWQJamyzir7T-1" source="Sio0LcyGTWQJamyzir7T-26" target="Sio0LcyGTWQJamyzir7T-35">
          <mxGeometry width="50" height="50" relative="1" as="geometry">
            <mxPoint x="270" y="310" as="sourcePoint" />
            <mxPoint x="320" y="260" as="targetPoint" />
          </mxGeometry>
        </mxCell>
        <mxCell id="Sio0LcyGTWQJamyzir7T-43" value="" style="endArrow=none;html=1;strokeWidth=2;rounded=0;entryX=0.5;entryY=0;entryDx=0;entryDy=0;exitX=1;exitY=1;exitDx=0;exitDy=0;" edge="1" parent="Sio0LcyGTWQJamyzir7T-1" source="Sio0LcyGTWQJamyzir7T-35" target="Sio0LcyGTWQJamyzir7T-25">
          <mxGeometry width="50" height="50" relative="1" as="geometry">
            <mxPoint x="360" y="190" as="sourcePoint" />
            <mxPoint x="410" y="140" as="targetPoint" />
          </mxGeometry>
        </mxCell>
        <mxCell id="Sio0LcyGTWQJamyzir7T-44" value="" style="endArrow=classic;html=1;rounded=0;exitX=0.09;exitY=0.15;exitDx=0;exitDy=0;entryX=1.017;entryY=0.675;entryDx=0;entryDy=0;entryPerimeter=0;exitPerimeter=0;" edge="1" parent="Sio0LcyGTWQJamyzir7T-1" source="Sio0LcyGTWQJamyzir7T-35" target="Sio0LcyGTWQJamyzir7T-46">
          <mxGeometry width="50" height="50" relative="1" as="geometry">
            <mxPoint x="141" y="220" as="sourcePoint" />
            <mxPoint x="191" y="170" as="targetPoint" />
          </mxGeometry>
        </mxCell>
        <mxCell id="Sio0LcyGTWQJamyzir7T-45" value="" style="endArrow=classic;html=1;rounded=0;entryX=0.5;entryY=0;entryDx=0;entryDy=0;exitX=0.45;exitY=0.975;exitDx=0;exitDy=0;exitPerimeter=0;" edge="1" parent="Sio0LcyGTWQJamyzir7T-1" source="Sio0LcyGTWQJamyzir7T-14" target="Sio0LcyGTWQJamyzir7T-21">
          <mxGeometry width="50" height="50" relative="1" as="geometry">
            <mxPoint x="81" y="280" as="sourcePoint" />
            <mxPoint x="131" y="230" as="targetPoint" />
          </mxGeometry>
        </mxCell>
        <mxCell id="Sio0LcyGTWQJamyzir7T-46" value="use ticket" style="ellipse;whiteSpace=wrap;html=1;" vertex="1" parent="Sio0LcyGTWQJamyzir7T-1">
          <mxGeometry x="111" y="95" width="120" height="80" as="geometry" />
        </mxCell>
        <mxCell id="Sio0LcyGTWQJamyzir7T-47" value="" style="endArrow=classic;html=1;rounded=0;entryX=0.208;entryY=0.088;entryDx=0;entryDy=0;entryPerimeter=0;" edge="1" parent="Sio0LcyGTWQJamyzir7T-1" source="Sio0LcyGTWQJamyzir7T-46" target="Sio0LcyGTWQJamyzir7T-14">
          <mxGeometry width="50" height="50" relative="1" as="geometry">
            <mxPoint x="90" y="290" as="sourcePoint" />
            <mxPoint x="140" y="240" as="targetPoint" />
          </mxGeometry>
        </mxCell>
        <mxCell id="Sio0LcyGTWQJamyzir7T-53" value="" style="endArrow=none;dashed=1;html=1;dashPattern=1 3;strokeWidth=2;rounded=0;entryX=0.08;entryY=0.817;entryDx=0;entryDy=0;entryPerimeter=0;" edge="1" parent="Sio0LcyGTWQJamyzir7T-1" source="Sio0LcyGTWQJamyzir7T-54" target="Sio0LcyGTWQJamyzir7T-35">
          <mxGeometry width="50" height="50" relative="1" as="geometry">
            <mxPoint x="241" y="245" as="sourcePoint" />
            <mxPoint x="261" y="225" as="targetPoint" />
          </mxGeometry>
        </mxCell>
        <mxCell id="Sio0LcyGTWQJamyzir7T-54" value="visit store" style="ellipse;whiteSpace=wrap;html=1;" vertex="1" parent="Sio0LcyGTWQJamyzir7T-1">
          <mxGeometry x="155" y="275" width="120" height="80" as="geometry" />
        </mxCell>
        <mxCell id="Sio0LcyGTWQJamyzir7T-55" value="" style="endArrow=classic;html=1;rounded=0;exitX=0.083;exitY=0.2;exitDx=0;exitDy=0;exitPerimeter=0;entryX=0.5;entryY=1;entryDx=0;entryDy=0;" edge="1" parent="Sio0LcyGTWQJamyzir7T-1" source="Sio0LcyGTWQJamyzir7T-54" target="Sio0LcyGTWQJamyzir7T-46">
          <mxGeometry width="50" height="50" relative="1" as="geometry">
            <mxPoint x="201" y="335" as="sourcePoint" />
            <mxPoint x="251" y="285" as="targetPoint" />
          </mxGeometry>
        </mxCell>
        <mxCell id="Sio0LcyGTWQJamyzir7T-2" value="audience" style="shape=umlActor;verticalLabelPosition=bottom;verticalAlign=top;html=1;outlineConnect=0;" vertex="1" parent="1">
          <mxGeometry x="90" y="110" width="30" height="60" as="geometry" />
        </mxCell>
        <mxCell id="Sio0LcyGTWQJamyzir7T-3" value="cinema worker" style="shape=umlActor;verticalLabelPosition=bottom;verticalAlign=top;html=1;outlineConnect=0;" vertex="1" parent="1">
          <mxGeometry x="670" y="140" width="30" height="60" as="geometry" />
        </mxCell>
        <mxCell id="Sio0LcyGTWQJamyzir7T-4" value="bank&lt;br&gt;" style="shape=umlActor;verticalLabelPosition=bottom;verticalAlign=top;html=1;outlineConnect=0;" vertex="1" parent="1">
          <mxGeometry x="660" y="380" width="30" height="60" as="geometry" />
        </mxCell>
        <mxCell id="Sio0LcyGTWQJamyzir7T-8" value="" style="endArrow=none;html=1;rounded=0;exitX=0.5;exitY=0.5;exitDx=0;exitDy=0;exitPerimeter=0;entryX=0.01;entryY=0.643;entryDx=0;entryDy=0;entryPerimeter=0;" edge="1" parent="1" source="Sio0LcyGTWQJamyzir7T-2" target="Sio0LcyGTWQJamyzir7T-6">
          <mxGeometry width="50" height="50" relative="1" as="geometry">
            <mxPoint x="330" y="390" as="sourcePoint" />
            <mxPoint x="380" y="340" as="targetPoint" />
          </mxGeometry>
        </mxCell>
        <mxCell id="Sio0LcyGTWQJamyzir7T-30" value="" style="endArrow=none;html=1;rounded=0;exitX=0.933;exitY=0.32;exitDx=0;exitDy=0;exitPerimeter=0;" edge="1" parent="1" source="Sio0LcyGTWQJamyzir7T-26" target="Sio0LcyGTWQJamyzir7T-4">
          <mxGeometry width="50" height="50" relative="1" as="geometry">
            <mxPoint x="590" y="300" as="sourcePoint" />
            <mxPoint x="640" y="250" as="targetPoint" />
          </mxGeometry>
        </mxCell>
        <mxCell id="Sio0LcyGTWQJamyzir7T-32" value="" style="endArrow=none;html=1;rounded=0;exitX=0.95;exitY=0.24;exitDx=0;exitDy=0;exitPerimeter=0;" edge="1" parent="1" source="Sio0LcyGTWQJamyzir7T-25" target="Sio0LcyGTWQJamyzir7T-3">
          <mxGeometry width="50" height="50" relative="1" as="geometry">
            <mxPoint x="570" y="230" as="sourcePoint" />
            <mxPoint x="620" y="180" as="targetPoint" />
          </mxGeometry>
        </mxCell>
        <mxCell id="Sio0LcyGTWQJamyzir7T-39" value="" style="endArrow=none;html=1;rounded=0;entryX=0.5;entryY=0.5;entryDx=0;entryDy=0;entryPerimeter=0;exitX=1;exitY=0.5;exitDx=0;exitDy=0;" edge="1" parent="1" source="Sio0LcyGTWQJamyzir7T-37" target="Sio0LcyGTWQJamyzir7T-3">
          <mxGeometry width="50" height="50" relative="1" as="geometry">
            <mxPoint x="540" y="60" as="sourcePoint" />
            <mxPoint x="590" y="10" as="targetPoint" />
          </mxGeometry>
        </mxCell>
        <mxCell id="Sio0LcyGTWQJamyzir7T-56" value="" style="endArrow=none;html=1;rounded=0;exitX=0.917;exitY=0.263;exitDx=0;exitDy=0;exitPerimeter=0;" edge="1" parent="1" source="Sio0LcyGTWQJamyzir7T-46" target="Sio0LcyGTWQJamyzir7T-3">
          <mxGeometry width="50" height="50" relative="1" as="geometry">
            <mxPoint x="550" y="220" as="sourcePoint" />
            <mxPoint x="600" y="170" as="targetPoint" />
          </mxGeometry>
        </mxCell>
        <mxCell id="Sio0LcyGTWQJamyzir7T-57" value="" style="endArrow=none;html=1;rounded=0;exitX=0.333;exitY=0.013;exitDx=0;exitDy=0;exitPerimeter=0;" edge="1" parent="1" source="Sio0LcyGTWQJamyzir7T-54" target="Sio0LcyGTWQJamyzir7T-3">
          <mxGeometry width="50" height="50" relative="1" as="geometry">
            <mxPoint x="670" y="290" as="sourcePoint" />
            <mxPoint x="720" y="240" as="targetPoint" />
          </mxGeometry>
        </mxCell>
      </root>
    </mxGraphModel>
  </diagram>
</mxfile>
